<svg width="128" height="128" viewBox="0 0 128 128" fill="none" xmlns="http://www.w3.org/2000/svg">
<mask id="mask0_9204_158" style="mask-type:alpha" maskUnits="userSpaceOnUse" x="0" y="0" width="128" height="128">
<rect width="128" height="128" fill="#03318C"/>
</mask>
<g mask="url(#mask0_9204_158)">
<path d="M58.6667 44.1333V41.8667C54.7556 40.7111 51.5556 38.5111 49.0667 35.2667C46.5778 32.0222 45.3333 28.2667 45.3333 24C45.3333 18.8445 47.1556 14.4445 50.8 10.8C54.4444 7.15557 58.8444 5.33334 64 5.33334C69.1556 5.33334 73.5556 7.15557 77.2 10.8C80.8444 14.4445 82.6667 18.8445 82.6667 24C82.6667 28.2667 81.4222 32.0222 78.9333 35.2667C76.4444 38.5111 73.2444 40.7111 69.3333 41.8667V44.1333L106.667 65.6C108.356 66.5778 109.667 67.8889 110.6 69.5333C111.533 71.1778 112 72.9778 112 74.9333V85.0667C112 87.0222 111.533 88.8222 110.6 90.4667C109.667 92.1111 108.356 93.4222 106.667 94.4L69.3333 115.867C67.6444 116.844 65.8667 117.333 64 117.333C62.1333 117.333 60.3556 116.844 58.6667 115.867L21.3333 94.4C19.6444 93.4222 18.3333 92.1111 17.4 90.4667C16.4667 88.8222 16 87.0222 16 85.0667V74.9333C16 72.9778 16.4667 71.1778 17.4 69.5333C18.3333 67.8889 19.6444 66.5778 21.3333 65.6L58.6667 44.1333ZM36.2667 69.3333L64 85.3333L91.7333 69.3333L69.3333 56.4V74.6667H58.6667V56.4L36.2667 69.3333Z" fill="white"/>
</g>
</svg>
